<svg width="80" height="80" viewBox="0 0 80 80" fill="none" xmlns="http://www.w3.org/2000/svg">
<rect width="80" height="80" rx="20" fill="#FFD9DE"/>
<mask id="mask0_136_447" style="mask-type:alpha" maskUnits="userSpaceOnUse" x="21" y="10" width="38" height="35">
<rect x="21.5" y="10" width="37" height="35" fill="#D9D9D9"/>
</mask>
<g mask="url(#mask0_136_447)">
<path d="M41.5416 26.9166V21.6666C41.5416 21.2534 41.3939 20.9071 41.0984 20.6276C40.8029 20.348 40.4368 20.2083 40 20.2083C39.5632 20.2083 39.197 20.348 38.9015 20.6276C38.6061 20.9071 38.4583 21.2534 38.4583 21.6666V27.4635C38.4583 27.6579 38.4969 27.8463 38.5739 28.0286C38.651 28.2109 38.7666 28.375 38.9208 28.5208L44.0083 33.3333C44.291 33.6007 44.6507 33.7343 45.0875 33.7343C45.5243 33.7343 45.884 33.6007 46.1666 33.3333C46.4493 33.0659 46.5906 32.7257 46.5906 32.3125C46.5906 31.8993 46.4493 31.559 46.1666 31.2916L41.5416 26.9166ZM40 42.0833C37.8673 42.0833 35.8632 41.7005 33.9875 40.9349C32.1118 40.1692 30.4802 39.1302 29.0927 37.8177C27.7052 36.5052 26.6068 34.9618 25.7974 33.1875C24.988 31.4132 24.5833 29.5173 24.5833 27.5C24.5833 25.4826 24.988 23.5868 25.7974 21.8125C26.6068 20.0382 27.7052 18.4948 29.0927 17.1823C30.4802 15.8698 32.1118 14.8307 33.9875 14.0651C35.8632 13.2994 37.8673 12.9166 40 12.9166C42.1326 12.9166 44.1368 13.2994 46.0125 14.0651C47.8882 14.8307 49.5198 15.8698 50.9073 17.1823C52.2948 18.4948 53.3932 20.0382 54.2026 21.8125C55.012 23.5868 55.4166 25.4826 55.4166 27.5C55.4166 29.5173 55.012 31.4132 54.2026 33.1875C53.3932 34.9618 52.2948 36.5052 50.9073 37.8177C49.5198 39.1302 47.8882 40.1692 46.0125 40.9349C44.1368 41.7005 42.1326 42.0833 40 42.0833Z" fill="#795832"/>
</g>
<path d="M23.18 51.12H38.46V52.64H24.68V57.86C24.68 62.54 24.06 64.86 22.2 68.08L20.78 67.34C22.5 64.38 23.18 62.4 23.18 58.02V51.12ZM31.2 53.4C31.2 53.84 31.18 55.48 31.16 56.44H37.26C37.22 57.24 36.86 64.14 36.8 64.98C36.68 66.78 36.06 67.34 33.32 67.58L31.96 67.7L31.38 66.14L33.16 66.02C34.94 65.9 35.18 65.64 35.3 64.26C35.36 63.58 35.62 58.6 35.64 57.9H31.1C30.86 62.82 29.64 65.16 25.9 68.06L24.7 66.98C28.32 64.22 29.38 62.22 29.58 57.9H25.74V56.44H29.64C29.68 55.42 29.7 53.78 29.7 53.34L31.2 53.4ZM58.4875 66.2L58.0475 67.76C53.9475 67.36 50.8475 66.68 48.2275 65.24C46.8275 66.38 44.6275 67.24 41.2075 68.1L40.4675 66.62C43.5675 65.98 45.5875 65.28 46.8475 64.38C45.5875 63.5 44.4475 62.38 43.3275 60.98L44.5075 60C45.6075 61.4 46.6875 62.52 47.9275 63.38C48.6275 62.44 48.8475 61.32 48.8475 59.88V59.78H42.3675V52.7H48.8475V49.98L50.3275 50.04V52.7H56.6875V59.78H50.3275V59.88C50.3275 61.7 50.0475 63.06 49.2475 64.18C51.5075 65.36 54.3275 65.92 58.4875 66.2ZM43.8675 58.34H48.8475V54.14H43.8675V58.34ZM55.2075 54.14H50.3275V58.34H55.2075V54.14Z" fill="#524345"/>
</svg>
