<svg width="80" height="80" viewBox="0 0 80 80" fill="none" xmlns="http://www.w3.org/2000/svg">
<rect width="80" height="80" rx="20" fill="#FFD9DE"/>
<mask id="mask0_136_442" style="mask-type:alpha" maskUnits="userSpaceOnUse" x="21" y="10" width="38" height="35">
<rect x="21.5" y="10" width="37" height="35" fill="#D9D9D9"/>
</mask>
<g mask="url(#mask0_136_442)">
<path d="M40 36.5202L33.0298 39.341C32.0567 39.734 31.1335 39.6568 30.2602 39.1095C29.3868 38.5621 28.9501 37.7943 28.9501 36.806V16.7711C28.9501 16.0164 29.2377 15.3665 29.8127 14.8213C30.3877 14.2761 31.0735 14.0035 31.8701 14.0035H48.13C48.9281 14.0035 49.6153 14.2761 50.1916 14.8213C50.7679 15.3665 51.0561 16.0164 51.0561 16.7711V36.806C51.0561 37.7943 50.6184 38.5621 49.743 39.1095C48.8676 39.6568 47.9433 39.734 46.9703 39.341L40 36.5202Z" fill="#795832"/>
</g>
<path d="M34.28 62.74C35.48 64.16 37.08 65.44 39.12 66.72L38.14 67.98C36.14 66.72 34.58 65.4 33.36 63.98C32.2 65.34 30.6 66.64 28.4 68L27.42 66.76C29.7 65.42 31.3 64.16 32.44 62.78C31.24 61.06 30.48 59.18 29.98 57.06C29.6 57.8 29.18 58.5 28.74 59.18L27.44 58.38C28.96 56.24 30.36 52.54 30.72 49.88L32.3 50.22C32.12 51.18 31.88 52.14 31.6 53.08H38.54V54.6H36.72C36.28 58.04 35.7 60.56 34.28 62.74ZM25.56 60.94V50.06L27 50.14V67.92H25.56V62.54C24.6 62.94 23.4 63.42 23.06 63.58C22.7 63.74 22.44 63.86 22.02 64.14L21.38 62.72C21.82 62.38 21.94 62.24 21.94 61.84V52.28L23.4 52.36V61.76L25.56 60.94ZM30.94 54.9C31.3 57.48 32.04 59.6 33.32 61.5C34.46 59.62 34.94 57.44 35.24 54.6H31.06L30.94 54.9ZM57.5675 63.68L58.7075 64.3C58.5675 65.18 58.4275 65.76 58.1475 66.54C57.7675 67.58 57.1475 67.78 56.6475 67.78C56.0875 67.78 55.3875 67.38 54.9475 66.5C54.6275 65.86 54.3275 65.12 54.0675 64.22C53.7075 64.6 53.3075 65 52.8675 65.4L52.0475 64.46C52.6675 63.9 53.2275 63.34 53.7275 62.76C53.5075 61.68 53.3475 60.38 53.2475 58.84C53.1875 57.88 53.1675 56.9 53.1475 56H45.9475V59.96C45.9475 64.14 45.3675 65.88 43.7475 68.3L42.5675 67.68C44.0675 65.66 44.5875 64.32 44.6675 61.46H43.3675C43.3075 63.56 42.9075 64.98 41.5475 66.8L40.4275 66.2C41.7475 64.42 42.0875 63.34 42.1475 61.46H40.7875V60.24H44.6875V58.56H41.8475V54L43.0875 54.08V57.32H44.6875V54.74H53.1475C53.1275 54.28 53.1275 53.84 53.1275 53.46L54.4475 53.54V54.74H56.1475C55.7475 54.16 55.2275 53.58 54.8275 53.2L55.6475 52.54H52.9075V53.78H51.5275V52.54H47.6275V53.8H46.2475V52.54H41.2475V51.32H46.2475V49.84L47.6275 49.9V51.32H51.5275V49.8L52.9075 49.86V51.32H57.9675V52.54H55.7475C56.2075 52.96 56.9075 53.72 57.2875 54.32L56.7675 54.74H57.8675V56H54.4475C54.4475 56.7 54.4675 57.46 54.5075 58.18C54.5675 59.36 54.6875 60.42 54.8275 61.34C55.6075 60.16 56.2275 58.88 56.7675 57.4L57.8875 57.86C57.1075 59.9 56.2675 61.5 55.1275 62.98C55.3275 63.9 55.5475 64.6 55.7675 65.08C56.1275 65.92 56.3275 66.32 56.6475 66.32C56.9875 66.32 57.0875 66.08 57.2875 65.28C57.3875 64.86 57.4875 64.36 57.5675 63.68ZM51.0875 63.84V65.84H53.1475V66.94H46.8875V57.2H52.7475V58.32H51.0875V60.16H52.4475V63.84H51.0875ZM49.9875 58.32H48.0875V60.16H49.9875V58.32ZM51.3275 62.8V61.2H48.0875V62.8H51.3275ZM48.0875 63.84V65.84H49.9875V63.84H48.0875Z" fill="#524345"/>
</svg>
