<svg width="80" height="80" viewBox="0 0 80 80" fill="none" xmlns="http://www.w3.org/2000/svg">
<rect width="80" height="80" rx="20" fill="#FFD9DE"/>
<mask id="mask0_136_462" style="mask-type:alpha" maskUnits="userSpaceOnUse" x="21" y="10" width="38" height="35">
<rect x="21.5" y="10" width="37" height="35" fill="#D9D9D9"/>
</mask>
<g mask="url(#mask0_136_462)">
<path d="M38.4583 28.9583V33.3333C38.4583 33.7465 38.6061 34.0928 38.9016 34.3724C39.1971 34.6519 39.5632 34.7916 40 34.7916C40.4368 34.7916 40.803 34.6519 41.0984 34.3724C41.3939 34.0928 41.5417 33.7465 41.5417 33.3333V28.9583H46.1667C46.6035 28.9583 46.9696 28.8185 47.2651 28.539C47.5606 28.2595 47.7083 27.9132 47.7083 27.5C47.7083 27.0868 47.5606 26.7404 47.2651 26.4609C46.9696 26.1814 46.6035 26.0416 46.1667 26.0416H41.5417V21.6666C41.5417 21.2534 41.3939 20.9071 41.0984 20.6276C40.803 20.348 40.4368 20.2083 40 20.2083C39.5632 20.2083 39.1971 20.348 38.9016 20.6276C38.6061 20.9071 38.4583 21.2534 38.4583 21.6666V26.0416H33.8333C33.3965 26.0416 33.0304 26.1814 32.7349 26.4609C32.4394 26.7404 32.2917 27.0868 32.2917 27.5C32.2917 27.9132 32.4394 28.2595 32.7349 28.539C33.0304 28.8185 33.3965 28.9583 33.8333 28.9583H38.4583ZM40 42.0833C37.8674 42.0833 35.8632 41.7005 33.9875 40.9349C32.1118 40.1692 30.4802 39.1302 29.0927 37.8177C27.7052 36.5052 26.6068 34.9618 25.7974 33.1875C24.988 31.4132 24.5833 29.5173 24.5833 27.5C24.5833 25.4826 24.988 23.5868 25.7974 21.8125C26.6068 20.0382 27.7052 18.4948 29.0927 17.1823C30.4802 15.8698 32.1118 14.8307 33.9875 14.0651C35.8632 13.2994 37.8674 12.9166 40 12.9166C42.1327 12.9166 44.1368 13.2994 46.0125 14.0651C47.8882 14.8307 49.5198 15.8698 50.9073 17.1823C52.2948 18.4948 53.3932 20.0382 54.2026 21.8125C55.012 23.5868 55.4167 25.4826 55.4167 27.5C55.4167 29.5173 55.012 31.4132 54.2026 33.1875C53.3932 34.9618 52.2948 36.5052 50.9073 37.8177C49.5198 39.1302 47.8882 40.1692 46.0125 40.9349C44.1368 41.7005 42.1327 42.0833 40 42.0833Z" fill="#795832"/>
</g>
<path d="M27.32 51.1C28.8 52.22 30.96 54.16 32 55.26L30.98 56.54C30.02 55.32 28 53.44 26.54 52.28C25.18 54.22 23.42 56 21.44 57.44L20.56 56.3C23 54.58 25.36 51.94 26.36 49.68L27.88 50.12C27.7 50.46 27.52 50.78 27.32 51.1ZM36.16 50.02L37.64 50.1V65.54C37.64 67.08 37.28 67.38 35.42 67.58L33.88 67.74L33.36 66.22L35.08 66.06C36.02 65.98 36.16 65.84 36.16 64.88V50.02ZM33.94 51.56V63.12H32.52V51.48L33.94 51.56ZM29.54 65.16C29.68 64.38 29.74 63.5 29.74 63.5L31.14 64.12C31.14 64.12 31.08 64.66 30.92 65.7C30.72 67.04 30.02 67.34 28.86 67.4C27.44 67.48 26.5 67.48 24.66 67.36C23.38 67.28 22.94 66.68 22.94 65.46V56.36H29.8L29.78 57.66C29.78 57.9 29.7 60.22 29.68 60.76C29.62 62.26 29.04 62.68 27.68 62.82L26.58 62.94L26.08 61.64L27.2 61.56C28.12 61.48 28.32 61.26 28.36 60.54C28.4 59.96 28.44 58.24 28.46 57.7H24.36V65.24C24.36 65.68 24.42 65.92 25.28 66C26.7 66.12 27.4 66.12 28.62 66C29.32 65.94 29.44 65.68 29.54 65.16ZM50.8875 57.04V55.42H46.3875V54.26H50.8875V52.64H47.1475V51.5H50.8875V49.82L52.2275 49.86V51.5H56.4675V54.26H58.1475V55.42H56.4675V58.2H52.2275V59.78H56.9875V60.94H52.2275V62.5H57.6875V63.66H52.2275V65.5H50.8875V63.66H46.0675V62.5H50.8875V60.94H47.0075V59.78H50.8875V58.2H47.1275V57.04H50.8875ZM50.2075 66.02C52.8675 66.08 55.6275 66.08 58.3675 65.98L58.1275 67.34C55.5475 67.4 52.7475 67.4 50.1675 67.34C47.5075 67.28 45.3675 66.76 43.7075 64.94C43.0675 65.96 42.2475 66.96 41.2475 68.06L40.1875 66.98C41.2675 65.96 42.1475 64.92 42.8275 63.8C42.1475 62.74 41.5675 61.38 41.0875 59.66L42.1675 59.28C42.5675 60.64 43.0075 61.72 43.4875 62.58C44.1075 61.26 44.5275 59.8 44.8075 58.16H41.3475V56.9C42.5075 55.62 43.6075 54.16 44.6075 52.64H41.0075V51.38H46.1875V52.66C45.2075 54.16 44.1275 55.6 42.9275 56.88H46.1475V58.1C45.7875 60.4 45.2475 62.2 44.3475 63.86C45.7875 65.58 47.6475 65.96 50.2075 66.02ZM52.2275 52.64V54.26H55.2075V52.64H52.2275ZM55.2075 57.04V55.42H52.2275V57.04H55.2075Z" fill="#524345"/>
</svg>
