<svg width="80" height="80" viewBox="0 0 80 80" fill="none" xmlns="http://www.w3.org/2000/svg">
<rect width="80" height="80" rx="20" fill="#FFD9DE"/>
<mask id="mask0_136_457" style="mask-type:alpha" maskUnits="userSpaceOnUse" x="21" y="10" width="38" height="35">
<rect x="21.5" y="10" width="37" height="35" fill="#D9D9D9"/>
</mask>
<g mask="url(#mask0_136_457)">
<path d="M28.8684 37.9525C28.4529 37.9525 28.1058 37.8206 27.827 37.5566C27.548 37.2929 27.4084 36.9645 27.4084 36.5715C27.4084 36.1785 27.548 35.8501 27.827 35.5864C28.1058 35.3224 28.4529 35.1905 28.8684 35.1905H30.3997V24.6431C30.3997 22.5494 31.0506 20.673 32.3526 19.0139C33.6542 17.3546 35.3742 16.2974 37.5125 15.8424V15.0257C37.5125 14.3678 37.7542 13.8101 38.2375 13.3527C38.7211 12.8952 39.3086 12.6665 40 12.6665C40.6914 12.6665 41.2789 12.8952 41.7625 13.3527C42.2458 13.8101 42.4875 14.3678 42.4875 15.0257V15.8424C44.6278 16.2935 46.3494 17.3492 47.6521 19.0095C48.955 20.6696 49.6065 22.5474 49.6065 24.6431V35.1905H51.1316C51.5471 35.1905 51.8952 35.3224 52.1761 35.5864C52.4572 35.8501 52.5977 36.1785 52.5977 36.5715C52.5977 36.9645 52.4572 37.2929 52.1761 37.5566C51.8952 37.8206 51.5471 37.9525 51.1316 37.9525H28.8684ZM40.0093 42.4118C39.1346 42.4118 38.3868 42.1184 37.7657 41.5317C37.1445 40.9449 36.8338 40.238 36.8338 39.4109H43.1755C43.1755 40.238 42.8653 40.9449 42.2451 41.5317C41.625 42.1184 40.8798 42.4118 40.0093 42.4118ZM26.4965 24.603C26.0913 24.603 25.7538 24.4648 25.4841 24.1884C25.2145 23.9121 25.0999 23.5833 25.1403 23.2022C25.3258 21.4092 25.8465 19.7388 26.7024 18.191C27.558 16.6433 28.6599 15.2958 30.0081 14.1485C30.311 13.8865 30.6623 13.7669 31.0618 13.7898C31.4614 13.8129 31.7827 13.9837 32.0257 14.3024C32.2649 14.6213 32.3509 14.9662 32.2836 15.3371C32.2165 15.708 32.0314 16.0276 31.7282 16.2959C30.7153 17.1887 29.8877 18.2214 29.2453 19.3942C28.603 20.5671 28.193 21.8463 28.0155 23.2318C27.96 23.6272 27.7932 23.9546 27.5152 24.214C27.2372 24.4733 26.8976 24.603 26.4965 24.603ZM53.5035 24.603C53.1024 24.603 52.7628 24.4733 52.4848 24.214C52.2068 23.9546 52.04 23.6272 51.9845 23.2318C51.807 21.8463 51.397 20.5671 50.7547 19.3942C50.1123 18.2214 49.2847 17.1887 48.2718 16.2959C47.9686 16.0276 47.7835 15.708 47.7164 15.3371C47.6491 14.9662 47.7371 14.6213 47.9804 14.3024C48.2194 13.9837 48.5387 13.8129 48.9382 13.7898C49.3378 13.7669 49.689 13.8865 49.9919 14.1485C51.3401 15.2958 52.442 16.6433 53.2977 18.191C54.1535 19.7388 54.6742 21.4092 54.8597 23.2022C54.9001 23.5833 54.7855 23.9121 54.516 24.1884C54.2462 24.4648 53.9087 24.603 53.5035 24.603Z" fill="#795832"/>
</g>
<path d="M32.96 49.9V55.46H37.32V65.5C37.32 67.2 36.88 67.52 35.02 67.68L33.64 67.8L33.16 66.36L34.6 66.22C35.8 66.1 35.88 65.98 35.88 65.02V63.68H28.6V67.78H27.16V55.46H31.52V49.84L32.96 49.9ZM21.9 51.7L22.72 50.52C23.72 51.14 25.38 52.36 26.2 53.12L25.38 54.5C24.5 53.58 22.84 52.3 21.9 51.7ZM30.36 53.82L29.34 54.82C28.6 53.74 27.36 52.24 26.52 51.46L27.48 50.54C28.28 51.3 29.7 52.9 30.36 53.82ZM37.94 51.54C37.22 52.52 35.98 53.98 35.06 54.88L34.02 53.96C34.94 53.08 36.14 51.72 36.9 50.62L37.94 51.54ZM24.48 59.02C23.66 58.02 21.9 56.64 20.9 56.02L21.72 54.82C22.72 55.4 24.48 56.76 25.34 57.56L24.48 59.02ZM35.88 58.9V56.84H28.6V58.9H35.88ZM28.6 62.36H35.88V60.24H28.6V62.36ZM23.94 60.42L25.4 60.9C24.96 62.74 23.86 66.16 23.12 67.8L21.64 67.34C22.4 65.72 23.58 62.26 23.94 60.42ZM48.3075 61.84L49.3075 61.18H43.0275V51.7H47.4475C47.6875 51.04 47.9275 50.3 48.0875 49.82L49.6875 50.14C49.5675 50.52 49.3475 51.12 49.1275 51.7H55.5475V61.18H49.4475C50.1475 62.02 51.1475 63.34 51.5675 64.14L50.4075 65.04C49.9275 64.02 48.9475 62.6 48.3075 61.84ZM54.0675 52.94H44.5075V54.36H54.0675V52.94ZM54.0675 57.1V55.6H44.5075V57.1H54.0675ZM44.5075 58.34V59.94H54.0675V58.34H44.5075ZM55.2675 61.88C56.2275 62.92 57.4875 64.68 58.3475 66.06L57.2075 67.06C56.4675 65.6 55.0275 63.64 54.2075 62.64L55.2675 61.88ZM52.3475 65.04C52.4075 64.6 52.4475 64.14 52.4675 63.7L53.8875 64.28C53.8475 64.72 53.7875 65.18 53.7075 65.62C53.4275 67.18 53.0075 67.4 51.3075 67.5C49.9675 67.58 48.6875 67.58 47.3475 67.5C45.6875 67.4 45.2675 67 45.2675 65.2V62.06L46.7675 62.14V64.9C46.7675 65.88 46.9075 66.1 47.9075 66.16C48.9275 66.22 49.9275 66.22 50.9475 66.16C52.0875 66.1 52.2275 65.96 52.3475 65.04ZM40.3675 66.68C41.2075 65.42 41.9675 63.62 42.3875 62.08L43.7475 62.54C43.2875 64.14 42.4475 65.96 41.6075 67.28L40.3675 66.68Z" fill="#524345"/>
</svg>
